<svg xmlns="http://www.w3.org/2000/svg" version="1.1" viewBox="-5.0 -10.0 110.0 135.0">
 <path d="m74.16 87.645v8.3555c0 0.84375-0.68359 1.5273-1.5273 1.5273h-63.059c-0.84375 0-1.5273-0.68359-1.5273-1.5273v-81.727c0-0.84375 0.68359-1.5273 1.5273-1.5273h8.3633v-8.3672c0-0.84375 0.68359-1.5273 1.5273-1.5273h52.848c0.39844 0 0.78906 0.16016 1.0781 0.44922l10.215 10.223c0.28906 0.28906 0.44922 0.67969 0.44922 1.0781v25.445c4.3555 2.668 7.2656 7.4766 7.2656 12.957 0 5.4805-2.9102 10.285-7.2656 12.957v20.156c0 0.84375-0.68359 1.5273-1.5273 1.5273zm-53.168-74.898h41.426c0.40234 0 0.79297 0.15625 1.0781 0.44531l10.219 10.215c0.28906 0.28906 0.44531 0.67969 0.44531 1.082v13.457c0.64844-0.082031 1.3047-0.125 1.9766-0.125 1.6992 0 3.3359 0.27734 4.8633 0.79297v-22.484h-8.6875c-0.84375 0-1.5273-0.68359-1.5273-1.5273v-8.6953h-49.793zm39.898 3.0547h-49.789v78.672h60.004v-27.141c-5.9102-2.0742-10.156-7.7109-10.156-14.328 0-6.6211 4.2461-12.254 10.156-14.332v-12.66h-8.6875c-0.84375 0-1.5273-0.67969-1.5273-1.5234zm13.27 52.258v16.531h6.8398v-17.199c-1.5273 0.51562-3.1641 0.79688-4.8633 0.79688-0.67188 0-1.3281-0.042969-1.9766-0.12891zm4.6797-54.984-5.0039-5.0078v5.0078zm-9.8945 9.8867-5-5.0039v5.0039zm7.1914 17.91c-6.6953 0-12.133 5.4375-12.133 12.133 0 6.6953 5.4375 12.129 12.133 12.129 6.6953 0 12.129-5.4336 12.129-12.129 0-6.6953-5.4336-12.133-12.129-12.133zm-1.5273 10.605v-4.8633c0-0.84375 0.68359-1.5273 1.5273-1.5273 0.83984 0 1.5273 0.68359 1.5273 1.5273v4.8633h4.8633c0.83984 0 1.5273 0.68359 1.5273 1.5273s-0.6875 1.5273-1.5273 1.5273h-4.8633v4.8633c0 0.84375-0.6875 1.5273-1.5273 1.5273-0.84375 0-1.5273-0.68359-1.5273-1.5273v-4.8633h-4.8633c-0.84375 0-1.5273-0.68359-1.5273-1.5273s0.68359-1.5273 1.5273-1.5273zm-52.164 22.609c-0.84375 0-1.5273-0.68359-1.5273-1.5273s0.68359-1.5273 1.5273-1.5273h37.328c0.83984 0 1.5273 0.68359 1.5273 1.5273s-0.6875 1.5273-1.5273 1.5273zm0 11c-0.84375 0-1.5273-0.68359-1.5273-1.5273 0-0.83984 0.68359-1.5234 1.5273-1.5234h37.328c0.83984 0 1.5273 0.68359 1.5273 1.5234 0 0.84375-0.6875 1.5273-1.5273 1.5273zm0-54.996c-0.84375 0-1.5273-0.68359-1.5273-1.5234 0-0.84375 0.68359-1.5273 1.5273-1.5273h26.789c0.84375 0 1.5273 0.68359 1.5273 1.5273 0 0.83984-0.68359 1.5234-1.5273 1.5234zm0 32.996c-0.84375 0-1.5273-0.68359-1.5273-1.5273s0.68359-1.5273 1.5273-1.5273h37.328c0.83984 0 1.5273 0.68359 1.5273 1.5273s-0.6875 1.5273-1.5273 1.5273zm0-21.992c-0.84375 0-1.5273-0.68359-1.5273-1.5273s0.68359-1.5273 1.5273-1.5273h37.328c0.83984 0 1.5273 0.68359 1.5273 1.5273s-0.6875 1.5273-1.5273 1.5273zm0 10.992c-0.84375 0-1.5273-0.68359-1.5273-1.5273s0.68359-1.5273 1.5273-1.5273h34.613c0.83984 0 1.5273 0.68359 1.5273 1.5273s-0.6875 1.5273-1.5273 1.5273z" fill-rule="evenodd"/>
<text x="0.0" y="117.5" font-size="5.0" font-weight="bold" font-family="Arbeit Regular, Helvetica, Arial-Unicode, Arial, Sans-serif" fill="#000000"></text><text x="0.0" y="122.5" font-size="5.0" font-weight="bold" font-family="Arbeit Regular, Helvetica, Arial-Unicode, Arial, Sans-serif" fill="#000000"></text></svg>